<?xml version="1.0" encoding="utf-8"?>
<!-- Generator: Adobe Illustrator 16.0.0, SVG Export Plug-In . SVG Version: 6.00 Build 0)  -->
<!DOCTYPE svg PUBLIC "-//W3C//DTD SVG 1.1//EN" "http://www.w3.org/Graphics/SVG/1.1/DTD/svg11.dtd">
<svg version="1.1" id="Calque_1" xmlns="http://www.w3.org/2000/svg" xmlns:xlink="http://www.w3.org/1999/xlink" x="0px" y="0px"
	 width="115px" height="91px" viewBox="0 0 115 91" enable-background="new 0 0 115 91" xml:space="preserve">
<g>
	<g id="BLOCS">
		<rect fill="#3FBDED" width="79.512" height="25.359"/>
		<rect y="28.769" fill="#3FBDED" width="90.788" height="25.36"/>
		<polygon fill="#0274A9" points="115,54.129 115,91 90.787,91 90.787,28.769 		"/>
	</g>
	<g id="FLEUR">
		<path fill="#FFFFFF" d="M102.9,63.691c-0.256,0.465-0.826,1.135-1.791,2.336c-1.115,1.383-0.918,3.231-0.385,4.324
			c0.604,1.262,0.95,2.307,1.229,3.299c0.381,1.444,0.133,3.371,0.16,3.194h-0.973c0-2.352-0.732-4.563-2.517-5.547
			c-2.526-1.396-5.021,1.025-4.228,3.539c0.416,1.324,1.16,1.767,1.371,1.767c0,0-0.346-1.455,0.711-2.195
			c0.984-0.701,2.213-0.277,2.779,0.559c0.539,0.791,0.627,1.879,0.627,1.879H98.07v1.338l3.647-0.002c0,0-0.098,1.896-2.094,1.711
			c0,0,0.242,1.488,2.094,0.711c0,0-0.098,1.56,1.183,2.345l0,0l0,0c1.266-0.785,1.168-2.345,1.168-2.345
			c1.854,0.777,2.104-0.711,2.104-0.711c-2.008,0.185-2.104-1.711-2.104-1.711l3.66,0.002v-1.338H105.9c0,0,0.094-1.09,0.625-1.879
			c0.572-0.836,1.799-1.26,2.793-0.559c1.047,0.74,0.717,2.195,0.717,2.195c0.201,0,0.941-0.441,1.355-1.767
			c0.793-2.517-1.705-4.937-4.229-3.539c-1.777,0.982-2.513,3.195-2.513,5.547h-0.961c0.023,0.177-0.231-1.752,0.156-3.194
			c0.266-0.992,0.619-2.037,1.225-3.299c0.525-1.093,0.722-2.941-0.391-4.324C103.727,64.826,103.145,64.156,102.9,63.691z"/>
	</g>
	<g id="TEXTE_OUTLINE">
		<g>
			<path fill="#FFFFFF" d="M13.007,20.408c-0.346,0-0.631-0.061-0.854-0.183c-0.224-0.123-0.404-0.28-0.541-0.474
				c-0.137-0.195-0.234-0.407-0.292-0.637c-0.057-0.229-0.086-0.453-0.086-0.668v-2.998c0-0.518-0.09-0.867-0.271-1.046
				c-0.18-0.18-0.451-0.27-0.812-0.27H8.333v6.276H5.781V4.835h4.694c1.183,0,2.034,0.273,2.553,0.819
				c0.52,0.547,0.779,1.265,0.779,2.157v2.869c0,0.331-0.032,0.601-0.098,0.809c-0.064,0.209-0.144,0.377-0.237,0.507
				c-0.094,0.129-0.202,0.229-0.325,0.302c-0.123,0.072-0.235,0.136-0.335,0.194l-0.346,0.194c-0.072,0.043-0.145,0.083-0.216,0.119
				c-0.072,0.036-0.108,0.097-0.108,0.184c0,0.1,0.029,0.172,0.087,0.215c0.058,0.042,0.129,0.093,0.216,0.151l0.346,0.215
				c0.101,0.073,0.213,0.151,0.336,0.238c0.123,0.086,0.23,0.194,0.324,0.324c0.094,0.129,0.173,0.291,0.238,0.485
				c0.065,0.195,0.098,0.436,0.098,0.722v3.106h0.952v1.962L13.007,20.408L13.007,20.408z M11.211,7.941
				c0-0.547-0.289-0.82-0.865-0.82H8.333v4.724h2.012c0.26,0,0.469-0.075,0.627-0.226c0.159-0.151,0.238-0.349,0.238-0.594
				L11.211,7.941L11.211,7.941z"/>
			<path fill="#FFFFFF" d="M17.657,20.408V4.835h6.858v2.286H20.21v4.055h3.094v2.265H20.21v4.68h4.305v2.286L17.657,20.408
				L17.657,20.408z"/>
			<path fill="#FFFFFF" d="M32.91,20.408h-2.293L27.112,5.267V4.835h2.466l1.687,8.757l0.433,2.783h0.129l0.433-2.783l1.688-8.757
				h2.466v0.431L32.91,20.408z"/>
			<path fill="#FFFFFF" d="M38.946,20.408V4.835h6.858v2.286h-4.306v4.055h3.094v2.265h-3.094v4.68h4.306v2.286L38.946,20.408
				L38.946,20.408z"/>
			<path fill="#FFFFFF" d="M56.038,20.408l-3.656-8.088l-1.039-2.847h-0.129l0.475,4.768v6.168h-2.531V4.835h2.271l3.418,7.29
				l1.061,2.869h0.131l-0.26-4.573V4.835h2.53v15.572L56.038,20.408L56.038,20.408z"/>
			<path fill="#FFFFFF" d="M69.668,17.043c0,0.461-0.076,0.906-0.227,1.337c-0.152,0.431-0.394,0.812-0.728,1.143
				c-0.33,0.331-0.756,0.597-1.274,0.798c-0.521,0.201-1.142,0.302-1.861,0.302c-0.676,0-1.273-0.101-1.785-0.302
				c-0.514-0.202-0.941-0.467-1.287-0.798s-0.609-0.712-0.791-1.143c-0.18-0.432-0.27-0.877-0.27-1.337V4.835h2.598v12.079
				c0,0.532,0.154,0.902,0.465,1.11c0.311,0.209,0.666,0.313,1.07,0.313c0.375,0,0.717-0.104,1.027-0.313
				c0.311-0.208,0.467-0.578,0.467-1.11V4.835h2.596V17.043L69.668,17.043z"/>
		</g>
		<g>
			<path fill="#FFFFFF" d="M24.436,34.475c-0.324-0.33-0.75-0.597-1.276-0.798c-0.526-0.201-1.158-0.302-1.893-0.302
				c-0.736,0-1.367,0.101-1.893,0.302c-0.527,0.202-0.953,0.467-1.277,0.798c-0.325,0.331-0.563,0.712-0.714,1.143
				c-0.151,0.432-0.227,0.877-0.227,1.337v8.843c0,0.388,0.054,0.771,0.162,1.144c0.108,0.371,0.277,0.715,0.508,1.022
				c0.231,0.312,0.53,0.58,0.898,0.81c0.368,0.229,0.811,0.396,1.331,0.496v0.366c0,0.949,0.267,1.712,0.8,2.287
				c0.534,0.574,1.37,0.863,2.51,0.863c0.259,0,0.548-0.037,0.866-0.106c0.317-0.074,0.577-0.189,0.779-0.347v-1.94l-0.13-0.086
				c-0.433,0.157-0.88,0.235-1.341,0.235c-0.346,0-0.61-0.086-0.79-0.258c-0.18-0.173-0.271-0.39-0.271-0.646v-0.367
				c0.52-0.103,0.963-0.267,1.331-0.496c0.367-0.23,0.667-0.498,0.897-0.812c0.23-0.307,0.4-0.647,0.508-1.022
				c0.108-0.371,0.163-0.754,0.163-1.143v-8.844c0-0.46-0.076-0.906-0.228-1.337C24.998,35.187,24.759,34.805,24.436,34.475z
				 M22.781,45.668c0,0.518-0.116,0.884-0.346,1.1c-0.231,0.217-0.62,0.323-1.168,0.323s-0.938-0.106-1.168-0.323
				c-0.231-0.216-0.346-0.582-0.346-1.1v-8.584c0-0.518,0.115-0.884,0.346-1.1c0.23-0.216,0.62-0.323,1.168-0.323
				s0.938,0.107,1.168,0.323c0.23,0.216,0.346,0.583,0.346,1.1V45.668z"/>
			<path fill="#FFFFFF" d="M34.477,45.668c0,0.531-0.155,0.904-0.465,1.111c-0.31,0.207-0.653,0.312-1.028,0.312
				c-0.404,0-0.76-0.105-1.071-0.312c-0.31-0.207-0.465-0.58-0.465-1.111V33.591h-2.597v12.208c0,0.459,0.09,0.905,0.271,1.338
				c0.18,0.43,0.444,0.812,0.79,1.144c0.346,0.329,0.775,0.596,1.287,0.797c0.512,0.2,1.107,0.303,1.785,0.303
				c0.721,0,1.342-0.103,1.861-0.303c0.52-0.201,0.945-0.468,1.276-0.797c0.332-0.332,0.573-0.714,0.725-1.144
				c0.151-0.434,0.228-0.879,0.228-1.338V33.591h-2.596L34.477,45.668L34.477,45.668z"/>
			<polygon fill="#FFFFFF" points="41.961,32.167 43.325,32.167 46.679,29.557 46.679,28.769 44.184,28.769 41.961,31.563 			"/>
			<polygon fill="#FFFFFF" points="40.426,49.164 47.284,49.164 47.284,46.875 42.979,46.875 42.979,42.196 46.073,42.196 
				46.073,39.931 42.979,39.931 42.979,35.876 47.284,35.876 47.284,33.591 40.426,33.591 			"/>
			<path fill="#FFFFFF" d="M58.123,41.485l-0.476-0.26c-0.072-0.043-0.145-0.094-0.217-0.15c-0.072-0.059-0.107-0.129-0.107-0.216
				s0.033-0.155,0.098-0.205c0.065-0.05,0.133-0.097,0.205-0.14l0.303-0.217c0.159-0.114,0.315-0.266,0.465-0.453
				c0.152-0.186,0.228-0.488,0.228-0.905V36.48c0-0.532-0.09-0.985-0.271-1.358c-0.181-0.375-0.426-0.673-0.735-0.895
				c-0.311-0.224-0.674-0.385-1.092-0.485c-0.418-0.102-0.865-0.151-1.342-0.151h-4.586v15.573h4.781
				c0.836,0,1.504-0.105,2.002-0.314c0.496-0.209,0.88-0.475,1.146-0.799c0.268-0.322,0.442-0.682,0.531-1.078
				c0.086-0.395,0.129-0.779,0.129-1.153v-2.416c0-0.604-0.115-1.042-0.347-1.315S58.369,41.614,58.123,41.485z M53.147,35.876
				h1.904c0.346,0,0.594,0.079,0.744,0.238c0.152,0.158,0.229,0.38,0.229,0.668v2.178c0,0.302-0.09,0.532-0.271,0.69
				c-0.18,0.158-0.414,0.237-0.703,0.237h-1.904L53.147,35.876L53.147,35.876L53.147,35.876z M56.587,45.733
				c0,0.375-0.086,0.658-0.26,0.853c-0.172,0.193-0.533,0.289-1.082,0.289h-2.098v-4.722h2.098c0.578,0,0.945,0.105,1.104,0.313
				c0.16,0.209,0.238,0.492,0.238,0.853V45.733z"/>
			<polygon fill="#FFFFFF" points="62.578,49.164 69.438,49.164 69.438,46.875 65.131,46.875 65.131,42.196 68.225,42.196 
				68.225,39.931 65.131,39.931 65.131,35.876 69.438,35.876 69.438,33.591 62.578,33.591 			"/>
			<path fill="#FFFFFF" d="M78.025,38.637c-0.014,0.202-0.031,0.407-0.053,0.615c-0.022,0.208-0.041,0.398-0.054,0.572l0.084,0.129
				h2.271c0.074-0.418,0.136-0.871,0.185-1.359c0.051-0.489,0.076-0.927,0.076-1.315c0-0.302-0.043-0.672-0.132-1.11
				c-0.086-0.439-0.262-0.867-0.528-1.284s-0.656-0.773-1.168-1.068c-0.513-0.295-1.192-0.442-2.043-0.442
				c-0.578,0-1.111,0.08-1.603,0.237c-0.492,0.159-0.914,0.399-1.266,0.722c-0.354,0.324-0.631,0.733-0.834,1.229
				c-0.201,0.496-0.303,1.083-0.303,1.758v8.11c0,0.674,0.102,1.26,0.303,1.758c0.203,0.496,0.48,0.905,0.834,1.229
				c0.352,0.322,0.773,0.563,1.266,0.724c0.49,0.155,1.023,0.235,1.603,0.235c0.819,0,1.483-0.146,1.989-0.433
				c0.505-0.288,0.896-0.645,1.181-1.065c0.28-0.426,0.467-0.879,0.562-1.358c0.094-0.484,0.141-0.917,0.141-1.306
				c0-0.604-0.029-1.118-0.086-1.543c-0.057-0.424-0.115-0.759-0.174-1.003h-2.271L77.92,42.8c0.041,0.331,0.078,0.665,0.105,1.003
				c0.029,0.338,0.045,0.629,0.045,0.873c0,0.346-0.016,0.666-0.045,0.961c-0.027,0.293-0.094,0.548-0.193,0.765
				c-0.102,0.213-0.246,0.383-0.434,0.506c-0.188,0.123-0.435,0.184-0.736,0.184c-0.201,0-0.385-0.021-0.551-0.064
				s-0.314-0.127-0.445-0.248c-0.129-0.122-0.23-0.295-0.303-0.52c-0.072-0.223-0.107-0.513-0.107-0.873v-8.001
				c0-0.359,0.037-0.65,0.107-0.874c0.072-0.222,0.174-0.397,0.303-0.528c0.131-0.129,0.279-0.216,0.445-0.259
				c0.164-0.043,0.348-0.064,0.551-0.064c0.549,0,0.918,0.172,1.115,0.517c0.193,0.345,0.291,0.819,0.291,1.424
				c0,0.13-0.004,0.284-0.012,0.464C78.051,38.246,78.041,38.436,78.025,38.637z"/>
		</g>
	</g>
</g>
</svg>
