<?xml version="1.0" standalone="no"?>
<!DOCTYPE svg PUBLIC "-//W3C//DTD SVG 1.1//EN" "http://www.w3.org/Graphics/SVG/1.1/DTD/svg11.dtd">
<svg xmlns="http://www.w3.org/2000/svg" id="Layer_2" data-name="Layer 2" version="1.1" viewBox="0 0 143.7 309" width="143.6999969482422" height="309">
  <defs>
    <style>
      .cls-1 {
        stroke: #ed1c24;
        stroke-width: 5.5px;
      }

      .cls-1, .cls-2, .cls-3, .cls-4, .cls-5 {
        stroke-linejoin: round;
      }

      .cls-1, .cls-2, .cls-3, .cls-4, .cls-5, .cls-6 {
        stroke-linecap: round;
      }

      .cls-1, .cls-7, .cls-3, .cls-4, .cls-5 {
        fill: none;
      }

      .cls-2 {
        stroke-width: 1.9px;
      }

      .cls-2, .cls-7, .cls-4, .cls-5 {
        stroke: #231f20;
      }

      .cls-2, .cls-8 {
        fill: #231f20;
      }

      .cls-7 {
        stroke-width: 7.5px;
      }

      .cls-7, .cls-6 {
        stroke-miterlimit: 10;
      }

      .cls-3 {
        stroke: #2e3192;
      }

      .cls-3, .cls-5 {
        stroke-width: 1.5px;
      }

      .cls-4 {
        stroke-width: 5px;
      }

      .cls-6 {
        fill: #00a651;
        stroke: #00a651;
        stroke-width: .5px;
      }

      .cls-8 {
        stroke-width: 0px;
      }
    </style>
  </defs>
  <path class="cls-5" d="M62.2,123.7"/>
  <path class="cls-3" d="M83.2,121.7v-34.3c0-2.8,3-2.5,3-2.5h10c6.3,0,8.8,4.7,8.8,4.7,1.2,1.7,2.2,2,2.2,2,6-1.2,3.7-10.7,3.7-10.7,11.4,0,11.3-5.2,11.3-5.2,0-9.5-10.8-7.7-10.8-7.7.2-5.2-1.3-7.5-1.3-7.5-3.2-3.2-5-2.2-5-2.2,0,6.3-6.7,6.8-6.7,6.8h-12.8c-2.5,0-2-2.3-2-2.3v-11.2c0-3.5,5.2-7,5.2-7,1.4-1.4,1.2-1.7,1.2-1.7,0-5.5-9.8-4.7-9.8-4.7v-2c0-8.8-6.5-8.7-6.5-8.7-8.9,0-7,9.8-7,9.8-11.2.5-10,5.8-10,5.8,0,0,.3,1.5,1.7,1.5,0,0,4.8,2.8,4.8,5.2v10.7c0,4.3-3,4.2-3,4.2h-11.8c-7,0-8.7-6.8-8.7-6.8-7.2.3-5.2,10.2-5.2,10.2-10.2,0-10.2,6-10.2,6,0,9.8,10.8,7.3,10.8,7.3-1.5,1.5-.7,6.2-.7,6.2,1.8,6.2,6,3,6,3,3.7-6.2,7.8-5.3,7.8-5.3h12.3s1.7.8,1.7,3v35.3"/>
  <line class="cls-1" x1="72.7" y1="55.7" x2="72.7" y2="108.7"/>
  <line class="cls-1" x1="50" y1="75.7" x2="97" y2="75.7"/>
  <circle class="cls-8" cx="72.7" cy="118.6" r="5.1"/>
  <path class="cls-2" d="M43.4,117.7l18.3,12.5s7.5,4.3,7.3,9.5v15.7s-.6,3.6,3.6,3.6c0,0,2.2-.2,2.2-4v-11.1c0-1.3,0-5.4,1.6-8.2,1.1-2,8-9.7,22-18.8h0l-2.7-4.4s-17.7,14.3-24,14c0,0-6.2,1.4-25.3-13.1l-2.9,4.1h0v.2Z"/>
  <path class="cls-6" d="M88.9,182l-37.3,30.2s-2.2,1.7-6,1.7h-7.7s-3-.7-4.2-2.2l-14.8-18.7v-37.3s.2-2.3,2-5.7c.4-.8,1.5-2.5,1.5-2.5l5.7-10.5s3.2-6,5.1-6.8c0,0,2.7-4,3.9-.9,0,0,1,3.7-2.8,7.2,0,0-2.3,2-4,4.3l-7.3,12.3s-.8,2.5-.3,5l-.5,13.1s.7,1.6,1.7,0v-13.2s0-4.2,2.8-8.2l7.8-11.2s1.9-1.9,4.2-3.2c0,0,8.3-6,11.4-6.7,0,0,2-.6,1.1,1.8,0,0-1,3.9-4.8,6,0,0-6.4,2.8-7.4,3.7,0,0-10,11.4-10.9,12.9,0,0-1.8,2.7-1.8,5.1v16.2s.7,2.2,1.7,0v-15.9s.9-3.7,2.6-5.4c0,0,8.7-9.8,9.2-10.5.6-.8,2-2.8,5.2-4.7,0,0,8.5-3.6,10.4-4.2l2.4-1.3s2.9-1.4,2.8,1.2c0,0,0,5.9-4.1,7.3,0,0-5.8,1.8-9.4,1.9,0,0-3.4,1.8-6.8,6,0,0-7.1,7.5-7.4,8.3s-1.4,3-1.4,4.2v16.9s.7,1.5,1.5,0v-16.2s.2-2.7,1.9-3.8l8.1-9.7s2.9-2.6,4.8-3.4c0,0,14.7-2.5,16.1-3.2,0,0,3.2-1.1,2.9,1.5,0,0-.9,6.8-6.6,8.5,0,0-8.2.6-12.8,7.1,0,0-6.8,11.9.2,19.5,7.1,7.6,14.7,7.3,21.2,5.9,0,0,5.2-2.5,6.1-3.8,0,0,3.7-3.5,8.6-3,0,0,3.6-.2,6.6,1.2,0,0,1.2,2-1.1,3.2h-.1Z"/>
  <path class="cls-6" d="M94.9,180.8c-3.2,1.9-18.2,13.1-18.2,13.1-1.8,1.6-.3,2.8-.3,2.8l19.5,17.7h10.4s3-.7,4.2-2.2l14.8-18.7v-37.3s-.2-2.3-2-5.7c-.4-.8-1.5-2.5-1.5-2.5l-5.7-10.5s-3.2-6-5.1-6.8c0,0-2.7-4-3.9-.9,0,0-1,3.7,2.8,7.2,0,0,2.3,2,4,4.3l7.3,12.3s.8,2.5.3,5l.5,13.1s-.7,1.6-1.7,0v-13.2s0-4.2-2.8-8.2l-7.8-11.2s-1.9-1.9-4.2-3.2c0,0-8.3-6-11.4-6.7,0,0-2-.6-1.1,1.8,0,0,1,3.9,4.8,6,0,0,6.4,2.8,7.4,3.7,0,0,10,11.4,10.9,12.9,0,0,1.8,2.7,1.8,5.1v16.2s-.7,2.2-1.7,0v-15.9s-.9-3.7-2.6-5.4c0,0-8.7-9.8-9.2-10.5-.6-.8-2-2.8-5.2-4.7,0,0-8.5-3.6-10.4-4.2l-2.4-1.3s-2.9-1.4-2.8,1.2c0,0,0,5.9,4.1,7.3,0,0,5.8,1.8,9.4,1.9,0,0,3.4,1.8,6.8,6,0,0,7.1,7.5,7.4,8.3s1.4,3,1.4,4.2v16.9s-.7,1.5-1.5,0v-16.2s-.2-2.7-1.9-3.8l-8.1-9.7s-2.9-2.6-4.8-3.4c0,0-14.7-2.5-16.1-3.2,0,0-3.2-1.1-2.9,1.5,0,0,.9,6.8,6.6,8.5,0,0,8.2.6,12.8,7.1,0,0,6.7,11.7,0,19.3l-.2.2-1.8,1.7h.1Z"/>
  <ellipse class="cls-8" cx="61.9" cy="157.9" rx="3.5" ry="3.4"/>
  <ellipse class="cls-8" cx="81.4" cy="157.9" rx="3.5" ry="3.4"/>
  <line class="cls-4" x1="50.1" y1="164.5" x2="91.2" y2="164.5"/>
  <path class="cls-8" d="M57.9,166.8s1.9,1.2,1,6.4c0,0-2.9,5.2-4.3,6.2,0,0-1.8,2.6,1.5,3.4,0,0,2.4,1.3,4.4-1.9,0,0,2.2-2.2,3.9,0,0,0,1.3,2.5,2.8,2.8s2.9-.2,3.8-2c0,0,0-1.6-2.2-2.4,0,0-3.9-3.8-4.1-6.8,0,0-.7-4,.8-5.7,1.4-1.7-7.6,0-7.6,0h0Z"/>
  <line class="cls-4" x1="82.5" y1="173.2" x2="82.5" y2="165.5"/>
  <rect class="cls-8" x="46.9" y="229.2" width="7.7" height="28"/>
  <rect class="cls-8" x="57.7" y="229.2" width="7.7" height="28"/>
  <rect class="cls-8" x="68.6" y="229.2" width="7.7" height="28"/>
  <rect class="cls-8" x="79.5" y="229.2" width="7.7" height="28"/>
  <rect class="cls-8" x="90.4" y="229.2" width="7.7" height="28"/>
  <path class="cls-7" d="M.5,247.7h34.5v-8.3s-23.3-1.3-23.3-22V65.4S15.9,3.8,73.5,3.8c0,0,60.2.7,60.2,61.7v151.3s-1.7,23.3-25.3,23.3v7.7h30.7"/>
  <polyline class="cls-8" points=".5 302 8.9 302 4.7 309 .5 302.7"/>
  <polyline class="cls-8" points="8.9 309 17.2 309 13 302 8.9 308.4"/>
  <polyline class="cls-8" points="17.2 302 25.5 302 21.4 309 17.2 302.7"/>
  <polyline class="cls-8" points="25.5 309 33.9 309 29.7 302 25.5 308.4"/>
  <polyline class="cls-8" points="33.9 302 42.2 302 38 309 33.9 302.7"/>
  <polyline class="cls-8" points="42.2 309 50.5 309 46.4 302 42.2 308.4"/>
  <polyline class="cls-8" points="50.5 302 58.9 302 54.7 309 50.5 302.7"/>
  <polyline class="cls-8" points="58.9 309 67.2 309 63 302 58.9 308.4"/>
  <polyline class="cls-8" points="67.2 302 75.5 302 71.4 309 67.2 302.7"/>
  <polyline class="cls-8" points="75.5 309 83.9 309 79.7 302 75.5 308.4"/>
  <polyline class="cls-8" points="83.9 302 92.2 302 88 309 83.9 302.7"/>
  <polyline class="cls-8" points="92.2 309 100.5 309 96.4 302 92.2 308.4"/>
  <polyline class="cls-8" points="100.5 302 108.9 302 104.7 309 100.5 302.7"/>
  <polyline class="cls-8" points="108.9 309 117.2 309 113 302 108.9 308.4"/>
  <polyline class="cls-8" points="117.2 302 125.5 302 121.4 309 117.2 302.7"/>
  <polyline class="cls-8" points="125.5 309 133.9 309 129.7 302 125.5 308.4"/>
  <polyline class="cls-8" points="133.9 302 142.2 302 138 309 133.9 302.7"/>
  <g>
    <path class="cls-8" d="M6.8,274.7c-.4.3-1.3.6-2.4.6-2.5,0-4.4-2.3-4.4-6.5s1.9-6.7,4.7-6.7,1.8.3,2.1.6l-.3,1.4c-.4-.3-1.1-.5-1.8-.5-2.1,0-3.5,1.9-3.5,5.3s1.3,5.2,3.4,5.2,1.4-.2,1.9-.5l.2,1.3v-.2Z"/>
    <path class="cls-8" d="M15.7,268.6c0,4.4-1.9,6.8-4.2,6.8s-4.1-2.6-4.1-6.5,1.8-6.7,4.2-6.7,4.1,2.7,4.1,6.5h0ZM8.7,268.8c0,2.8,1,5.2,2.9,5.2s2.9-2.4,2.9-5.3-.9-5.2-2.9-5.2-2.9,2.5-2.9,5.3Z"/>
    <path class="cls-8" d="M17.2,262.4c.6-.1,1.3-.2,2.2-.2s2,.4,2.5,1.1c.5.6.8,1.5.8,2.7s-.2,2.1-.7,2.7c-.6.9-1.6,1.4-2.8,1.4s-.7,0-.9-.1v5.1h-1.2v-12.7h0ZM18.4,268.6c.3,0,.6.1,1,.1,1.4,0,2.3-1,2.3-2.7s-.9-2.5-2.1-2.5-.9,0-1.1.1v5h0Z"/>
    <path class="cls-8" d="M26,263.7h-2.7v-1.4h6.7v1.4h-2.8v11.4h-1.2v-11.4h0Z"/>
    <path class="cls-8" d="M32.1,262.3v12.8h-1.2v-12.8h1.2Z"/>
    <path class="cls-8" d="M40.5,274.7c-.4.3-1.3.6-2.4.6-2.5,0-4.4-2.3-4.4-6.5s1.9-6.7,4.7-6.7,1.8.3,2.1.6l-.3,1.4c-.4-.3-1.1-.5-1.8-.5-2.1,0-3.5,1.9-3.5,5.3s1.3,5.2,3.4,5.2,1.4-.2,1.9-.5l.2,1.3v-.2Z"/>
    <path class="cls-8" d="M46.2,271.1l-.9,4h-1.2l3.1-12.8h1.4l3.1,12.8h-1.2l-1-4h-3.3ZM49.2,269.8l-.9-3.7c-.2-.8-.3-1.6-.5-2.3h0c-.1.7-.3,1.5-.5,2.3l-.9,3.7h2.8Z"/>
    <path class="cls-8" d="M54.1,262.3v12.8h-1.2v-12.8h1.2Z"/>
    <path class="cls-8" d="M56.1,262.5c.7-.2,1.6-.3,2.5-.3,1.7,0,2.9.6,3.6,1.6.8,1,1.3,2.5,1.3,4.6s-.5,3.8-1.3,5c-.9,1.2-2.2,1.8-4,1.8s-1.5,0-2.1-.2v-12.6h0ZM57.3,273.8h1.2c2.5,0,3.8-2,3.8-5.4s-1.2-4.9-3.6-4.9-1.1,0-1.4.2v10.1h0Z"/>
    <path class="cls-8" d="M67.9,262.3h4.9v1.4h-3.7v4.3h3.4v1.4h-3.4v5.8h-1.2v-12.8h0Z"/>
    <path class="cls-8" d="M82.1,268.6c0,4.4-1.9,6.8-4.2,6.8s-4-2.6-4-6.5,1.8-6.7,4.2-6.7,4.1,2.7,4.1,6.5h-.1ZM75.1,268.8c0,2.8,1,5.2,2.9,5.2s2.9-2.4,2.9-5.3-.9-5.2-2.9-5.2-2.9,2.5-2.9,5.3Z"/>
    <path class="cls-8" d="M84.8,262.3v7.6c0,2.9.9,4.1,2.1,4.1s2.2-1.3,2.2-4.1v-7.6h1.2v7.5c0,3.9-1.5,5.5-3.4,5.5s-3.2-1.5-3.2-5.5v-7.6h1.2-.1Z"/>
    <path class="cls-8" d="M92.3,275.1v-12.8h1.3l2.9,6.5c.7,1.5,1.2,2.9,1.6,4.2h0c-.1-1.7-.1-3.3-.1-5.3v-5.4h1.1v12.8h-1.2l-2.9-6.5c-.6-1.4-1.2-2.9-1.7-4.3h0v10.8h-1.1.1Z"/>
    <path class="cls-8" d="M101,262.5c.7-.2,1.6-.3,2.5-.3,1.7,0,2.9.6,3.6,1.6.8,1,1.3,2.5,1.3,4.6s-.5,3.8-1.3,5c-.9,1.2-2.2,1.8-4,1.8s-1.5,0-2.1-.2v-12.6h0ZM102.2,273.8h1.2c2.5,0,3.8-2,3.8-5.4s-1.2-4.9-3.6-4.9-1.1,0-1.4.2v10.1h0Z"/>
    <path class="cls-8" d="M111.2,271.1l-.9,4h-1.2l3.1-12.8h1.4l3.1,12.8h-1.2l-1-4h-3.3ZM114.2,269.8l-.9-3.7c-.2-.8-.3-1.6-.5-2.3h0c-.1.7-.3,1.5-.5,2.3l-.9,3.7h2.8Z"/>
    <path class="cls-8" d="M118.6,263.7h-2.7v-1.4h6.7v1.4h-2.8v11.4h-1.2v-11.4Z"/>
    <path class="cls-8" d="M124.7,262.3v12.8h-1.2v-12.8h1.2Z"/>
    <path class="cls-8" d="M134.5,268.6c0,4.4-1.9,6.8-4.2,6.8s-4-2.6-4-6.5,1.8-6.7,4.2-6.7,4.1,2.7,4.1,6.5h-.1ZM127.5,268.8c0,2.8,1,5.2,2.9,5.2s2.9-2.4,2.9-5.3-.9-5.2-2.9-5.2-2.9,2.5-2.9,5.3Z"/>
    <path class="cls-8" d="M136,275.1v-12.8h1.3l2.9,6.5c.7,1.5,1.2,2.9,1.6,4.2h0c-.1-1.7-.1-3.3-.1-5.3v-5.4h1.1v12.8h-1.2l-2.9-6.5c-.6-1.4-1.2-2.9-1.7-4.3h0v10.8h-1.1.1Z"/>
  </g>
  <g>
    <path class="cls-8" d="M.5,283.8h4.7v1.4H1.6v4.3h3.3v1.4H1.6v5.8H.5v-12.8h0Z"/>
    <path class="cls-8" d="M14.4,290.1c0,4.4-1.8,6.8-4.1,6.8s-3.9-2.6-3.9-6.5,1.7-6.7,4.1-6.7,4,2.7,4,6.5h-.1ZM7.5,290.3c0,2.8,1,5.2,2.8,5.2s2.8-2.4,2.8-5.3-.9-5.2-2.8-5.2-2.8,2.5-2.8,5.3Z"/>
    <path class="cls-8" d="M15.8,296.7v-12.8h1.3l2.8,6.5c.6,1.5,1.2,2.9,1.6,4.2h0c-.1-1.7-.1-3.3-.1-5.3v-5.4h1.1v12.8h-1.1l-2.8-6.5c-.6-1.4-1.2-2.9-1.6-4.3h0v10.8h-1.2Z"/>
    <path class="cls-8" d="M24.4,284c.7-.2,1.5-.3,2.4-.3,1.6,0,2.8.6,3.6,1.6.8,1,1.3,2.5,1.3,4.6s-.5,3.8-1.3,5-2.2,1.8-3.9,1.8-1.5,0-2.1-.2v-12.6h0ZM25.5,295.4h1.1c2.4,0,3.7-2,3.7-5.4s-1.2-4.9-3.6-4.9-1,0-1.3.2v10.1h0Z"/>
    <path class="cls-8" d="M34.3,292.6l-.9,4h-1.2l3-12.8h1.4l3,12.8h-1.2l-.9-4h-3.2ZM37.2,291.3l-.9-3.7c-.2-.8-.3-1.6-.5-2.3h0c-.1.7-.3,1.5-.4,2.3l-.9,3.7h2.7,0Z"/>
    <path class="cls-8" d="M41.6,285.2h-2.7v-1.4h6.5v1.4h-2.7v11.4h-1.1v-11.4h0Z"/>
    <path class="cls-8" d="M47.5,283.8v12.8h-1.1v-12.8h1.1Z"/>
    <path class="cls-8" d="M57,290.1c0,4.4-1.8,6.8-4.1,6.8s-3.9-2.6-3.9-6.5,1.7-6.7,4.1-6.7,4,2.7,4,6.5h-.1ZM50.2,290.3c0,2.8,1,5.2,2.8,5.2s2.8-2.4,2.8-5.3-.9-5.2-2.8-5.2-2.8,2.5-2.8,5.3Z"/>
    <path class="cls-8" d="M58.5,296.7v-12.8h1.3l2.8,6.5c.6,1.5,1.2,2.9,1.6,4.2h0c-.1-1.7-.1-3.3-.1-5.3v-5.4h1.1v12.8h-1.1l-2.8-6.5c-.6-1.4-1.2-2.9-1.6-4.3h0v10.8h-1.2Z"/>
    <path class="cls-8" d="M69.8,284c.7-.2,1.5-.3,2.4-.3,1.6,0,2.8.6,3.6,1.6.8,1,1.3,2.5,1.3,4.6s-.5,3.8-1.3,5-2.2,1.8-3.9,1.8-1.5,0-2.1-.2v-12.6h0ZM70.9,295.4h1.1c2.4,0,3.7-2,3.7-5.4s-1.2-4.9-3.6-4.9-1,0-1.3.2v10.1h0Z"/>
    <path class="cls-8" d="M80,283.5c-.3,1.6-.9,3.7-1.2,4.5h-.7c.3-1,.6-3,.8-4.3l1.2-.2h0Z"/>
    <path class="cls-8" d="M81.5,292.6l-.9,4h-1.2l3-12.8h1.4l3,12.8h-1.2l-.9-4h-3.2ZM84.4,291.3l-.9-3.7c-.2-.8-.3-1.6-.5-2.3h0c-.1.7-.3,1.5-.4,2.3l-.9,3.7h2.7,0Z"/>
    <path class="cls-8" d="M89.2,283.8v12.8h-1.1v-12.8h1.1Z"/>
    <path class="cls-8" d="M91.2,284c.7-.2,1.5-.3,2.4-.3,1.6,0,2.8.6,3.6,1.6.8,1,1.3,2.5,1.3,4.6s-.5,3.8-1.3,5-2.2,1.8-3.9,1.8-1.5,0-2.1-.2v-12.6h0ZM92.3,295.4h1.1c2.4,0,3.7-2,3.7-5.4s-1.2-4.9-3.6-4.9-1,0-1.3.2v10.1h0Z"/>
    <path class="cls-8" d="M104.4,290.6h-3.4v4.6h3.8v1.4h-5v-12.8h4.8v1.4h-3.6v4.1h3.4v1.4h0Z"/>
    <path class="cls-8" d="M115.2,296.3c-.4.3-1.3.6-2.3.6-2.5,0-4.3-2.3-4.3-6.5s1.9-6.7,4.6-6.7,1.8.3,2.1.6l-.3,1.4c-.4-.3-1-.5-1.8-.5-2.1,0-3.4,1.9-3.4,5.3s1.2,5.2,3.4,5.2,1.4-.2,1.9-.5l.2,1.3v-.2Z"/>
    <path class="cls-8" d="M123.9,290.1c0,4.4-1.8,6.8-4.1,6.8s-3.9-2.6-3.9-6.5,1.7-6.7,4.1-6.7,4,2.7,4,6.5h-.1ZM117,290.3c0,2.8,1,5.2,2.8,5.2s2.8-2.4,2.8-5.3-.9-5.2-2.8-5.2-2.8,2.5-2.8,5.3Z"/>
    <path class="cls-8" d="M125.3,284c.5-.1,1.3-.2,2.2-.2s1.9.4,2.5,1.1c.5.6.8,1.5.8,2.7s-.2,2.1-.7,2.7c-.6.9-1.6,1.4-2.7,1.4s-.7,0-.9-.1v5.1h-1.1v-12.7h0ZM126.5,290.2c.2,0,.6.1.9.1,1.4,0,2.2-1,2.2-2.7s-.8-2.5-2.1-2.5-.9,0-1.1.1v5h.1Z"/>
    <path class="cls-8" d="M133.9,285.2h-2.7v-1.4h6.5v1.4h-2.7v11.4h-1.1v-11.4h0Z"/>
    <path class="cls-8" d="M143.3,290.6h-3.4v4.6h3.8v1.4h-5v-12.8h4.8v1.4h-3.6v4.1h3.4v1.4h0Z"/>
  </g>
</svg>