<?xml version="1.0" standalone="no"?>
<!DOCTYPE svg PUBLIC "-//W3C//DTD SVG 1.1//EN" "http://www.w3.org/Graphics/SVG/1.1/DTD/svg11.dtd">
<svg xmlns="http://www.w3.org/2000/svg" id="Layer_1" data-name="Layer 1" version="1.1" viewBox="0 0 765.5 257.1" width="765.5" height="257.1000061035156">
  <defs>
    <style>
      .cls-1 {
        stroke-width: 1.9px;
      }

      .cls-1, .cls-2, .cls-3, .cls-4 {
        stroke: #231f20;
      }

      .cls-1, .cls-5, .cls-6, .cls-3, .cls-4, .cls-7 {
        stroke-linecap: round;
      }

      .cls-1, .cls-6, .cls-3, .cls-4, .cls-7 {
        stroke-linejoin: round;
      }

      .cls-1, .cls-8 {
        fill: #231f20;
      }

      .cls-2 {
        stroke-width: 7.5px;
      }

      .cls-2, .cls-5 {
        stroke-miterlimit: 10;
      }

      .cls-2, .cls-6, .cls-3, .cls-4, .cls-7 {
        fill: none;
      }

      .cls-5 {
        fill: #06a64f;
        stroke: #06a64f;
        stroke-width: .5px;
      }

      .cls-6 {
        stroke: #ec2227;
        stroke-width: 5.5px;
      }

      .cls-3 {
        stroke-width: 5px;
      }

      .cls-4, .cls-7 {
        stroke-width: 1.5px;
      }

      .cls-8 {
        stroke-width: 0px;
      }

      .cls-7 {
        stroke: #2e3690;
      }
    </style>
  </defs>
  <path class="cls-4" d="M61.7,123.5"/>
  <path class="cls-7" d="M82.7,121.5v-34.3c0-2.8,3-2.5,3-2.5h10c6.3,0,8.8,4.7,8.8,4.7,1.2,1.7,2.2,2,2.2,2,6-1.2,3.7-10.7,3.7-10.7,11.4,0,11.3-5.2,11.3-5.2,0-9.5-10.8-7.7-10.8-7.7.2-5.2-1.3-7.5-1.3-7.5-3.2-3.2-5-2.2-5-2.2,0,6.3-6.7,6.8-6.7,6.8h-12.8c-2.5,0-2-2.3-2-2.3v-11.2c0-3.5,5.2-7,5.2-7,1.4-1.4,1.2-1.7,1.2-1.7,0-5.5-9.8-4.7-9.8-4.7v-2c0-8.8-6.5-8.7-6.5-8.7-8.9,0-7,9.8-7,9.8-11.2.5-10,5.8-10,5.8,0,0,.3,1.5,1.7,1.5,0,0,4.8,2.8,4.8,5.2v10.7c0,4.3-3,4.2-3,4.2h-11.8c-7,0-8.7-6.8-8.7-6.8-7.2.3-5.2,10.2-5.2,10.2-10.2,0-10.2,6-10.2,6,0,9.8,10.8,7.3,10.8,7.3-1.5,1.5-.7,6.2-.7,6.2,1.8,6.2,6,3,6,3,3.7-6.2,7.8-5.3,7.8-5.3h12.3s1.7.8,1.7,3v35.3"/>
  <line class="cls-6" x1="72.2" y1="55.7" x2="72.2" y2="108.5"/>
  <line class="cls-6" x1="49.5" y1="75.5" x2="96.5" y2="75.5"/>
  <circle class="cls-8" cx="72.2" cy="118.5" r="5.1"/>
  <path class="cls-1" d="M42.9,117.5l18.3,12.5s7.5,4.3,7.3,9.5v15.7s-.6,3.6,3.6,3.6c0,0,2.2-.2,2.2-4v-11.1c0-1.3,0-5.4,1.6-8.2,1.1-2,8-9.7,22-18.8h0l-2.7-4.4s-17.7,14.3-24,14c0,0-6.2,1.4-25.3-13.1l-2.9,4.1h0v.2h0Z"/>
  <path class="cls-5" d="M88.4,182l-37.3,30.2s-2.2,1.7-6,1.7h-7.7s-3-.7-4.2-2.2l-14.8-18.7v-37.3s.2-2.3,2-5.7c.4-.8,1.5-2.5,1.5-2.5l5.7-10.5s3.2-6,5.1-6.8c0,0,2.7-4,3.9-.9,0,0,1,3.7-2.8,7.2,0,0-2.3,2-4,4.3l-7.3,12.3s-.8,2.5-.3,5l-.5,13.1s.7,1.6,1.7,0v-13.2s0-4.2,2.8-8.2l7.8-11.2s1.9-1.9,4.2-3.2c0,0,8.3-6,11.4-6.7,0,0,2-.6,1.1,1.8,0,0-1,3.9-4.8,6,0,0-6.4,2.8-7.4,3.7,0,0-10,11.4-10.9,12.9,0,0-1.8,2.7-1.8,5.1v16.2s.7,2.2,1.7,0v-15.9s.9-3.7,2.6-5.4c0,0,8.7-9.8,9.2-10.5.6-.8,2-2.8,5.2-4.7,0,0,8.5-3.6,10.4-4.2l2.4-1.3s2.9-1.4,2.8,1.2c0,0,0,5.9-4.1,7.3,0,0-5.8,1.8-9.4,1.9,0,0-3.4,1.8-6.8,6,0,0-7.1,7.5-7.4,8.3s-1.4,3-1.4,4.2v16.9s.7,1.5,1.5,0v-16.2s.2-2.7,1.9-3.8l8.1-9.7s2.9-2.6,4.8-3.4c0,0,14.7-2.5,16.1-3.2,0,0,3.2-1.1,2.9,1.5,0,0-.9,6.8-6.6,8.5,0,0-8.2.6-12.8,7.1,0,0-6.8,11.9.2,19.5,7.1,7.6,14.7,7.3,21.2,5.9,0,0,5.2-2.5,6.1-3.8,0,0,3.7-3.5,8.6-3,0,0,3.6-.2,6.6,1.2,0,0,1.2,2-1.1,3.2h-.1Z"/>
  <path class="cls-5" d="M94.4,180.8c-3.2,1.9-18.2,13.1-18.2,13.1-1.8,1.6-.3,2.8-.3,2.8l19.5,17.7h10.4s3-.7,4.2-2.2l14.8-18.7v-37.3s-.2-2.3-2-5.7c-.4-.8-1.5-2.5-1.5-2.5l-5.7-10.5s-3.2-6-5.1-6.8c0,0-2.7-4-3.9-.9,0,0-1,3.7,2.8,7.2,0,0,2.3,2,4,4.3l7.3,12.3s.8,2.5.3,5l.5,13.1s-.7,1.6-1.7,0v-13.2s0-4.2-2.8-8.2l-7.8-11.2s-1.9-1.9-4.2-3.2c0,0-8.3-6-11.4-6.7,0,0-2-.6-1.1,1.8,0,0,1,3.9,4.8,6,0,0,6.4,2.8,7.4,3.7,0,0,10,11.4,10.9,12.9,0,0,1.8,2.7,1.8,5.1v16.2s-.7,2.2-1.7,0v-15.9s-.9-3.7-2.6-5.4c0,0-8.7-9.8-9.2-10.5-.6-.8-2-2.8-5.2-4.7,0,0-8.5-3.6-10.4-4.2l-2.4-1.3s-2.9-1.4-2.8,1.2c0,0,0,5.9,4.1,7.3,0,0,5.8,1.8,9.4,1.9,0,0,3.4,1.8,6.8,6,0,0,7.1,7.5,7.4,8.3s1.4,3,1.4,4.2v16.9s-.7,1.5-1.5,0v-16.2s-.2-2.7-1.9-3.8l-8.1-9.7s-2.9-2.6-4.8-3.4c0,0-14.7-2.5-16.1-3.2,0,0-3.2-1.1-2.9,1.5,0,0,.9,6.8,6.6,8.5,0,0,8.2.6,12.8,7.1,0,0,6.7,11.7,0,19.3l-.2.2-1.8,1.7h0Z"/>
  <ellipse class="cls-8" cx="61.4" cy="157.8" rx="3.5" ry="3.4"/>
  <ellipse class="cls-8" cx="80.9" cy="157.8" rx="3.5" ry="3.4"/>
  <line class="cls-3" x1="49.6" y1="164.5" x2="90.7" y2="164.5"/>
  <path class="cls-8" d="M57.4,166.8s1.9,1.2,1,6.4c0,0-2.9,5.2-4.3,6.2,0,0-1.8,2.6,1.5,3.4,0,0,2.4,1.3,4.4-1.9,0,0,2.2-2.2,3.9,0,0,0,1.3,2.5,2.8,2.8s2.9-.2,3.8-2c0,0,0-1.6-2.2-2.4,0,0-3.9-3.8-4.1-6.8,0,0-.7-4,.8-5.7,1.4-1.7-7.6,0-7.6,0h0Z"/>
  <line class="cls-3" x1="82" y1="173.1" x2="82" y2="165.5"/>
  <rect class="cls-8" x="46.4" y="229.1" width="7.7" height="28"/>
  <rect class="cls-8" x="57.2" y="229.1" width="7.7" height="28"/>
  <rect class="cls-8" x="68.1" y="229.1" width="7.7" height="28"/>
  <rect class="cls-8" x="79" y="229.1" width="7.7" height="28"/>
  <rect class="cls-8" x="89.9" y="229.1" width="7.7" height="28"/>
  <path class="cls-2" d="M0,247.6h34.5v-8.3s-23.3-1.3-23.3-22V65.4S15.4,3.8,73,3.8c0,0,60.2.7,60.2,61.7v151.3s-1.7,23.3-25.3,23.3v7.7h30.7"/>
  <polyline class="cls-8" points="198.3 224.1 231.5 224.1 214.9 251.8 198.3 226.8"/>
  <polyline class="cls-8" points="231.5 251.8 264.4 251.8 247.8 224.1 231.5 249.5"/>
  <polyline class="cls-8" points="264.4 224.1 297.3 224.1 281.1 251.8 264.4 226.8"/>
  <polyline class="cls-8" points="297.3 251.8 330.6 251.8 313.9 224.1 297.3 249.5"/>
  <polyline class="cls-8" points="330.6 224.1 363.4 224.1 346.8 251.8 330.6 226.8"/>
  <polyline class="cls-8" points="363.4 251.8 396.3 251.8 380.1 224.1 363.4 249.5"/>
  <polyline class="cls-8" points="396.3 224.1 429.6 224.1 413 251.8 396.3 226.8"/>
  <polyline class="cls-8" points="429.6 251.8 462.5 251.8 445.8 224.1 429.6 249.5"/>
  <polyline class="cls-8" points="462.5 224.1 495.4 224.1 479.1 251.8 462.5 226.8"/>
  <polyline class="cls-8" points="495.4 251.8 528.6 251.8 512 224.1 495.4 249.5"/>
  <polyline class="cls-8" points="528.6 224.1 561.5 224.1 544.9 251.8 528.6 226.8"/>
  <polyline class="cls-8" points="561.5 251.8 594.4 251.8 578.1 224.1 561.5 249.5"/>
  <polyline class="cls-8" points="594.4 224.1 627.7 224.1 611 251.8 594.4 226.8"/>
  <polyline class="cls-8" points="627.7 251.8 660.5 251.8 643.9 224.1 627.7 249.5"/>
  <polyline class="cls-8" points="660.5 224.1 693.4 224.1 677.2 251.8 660.5 226.8"/>
  <polyline class="cls-8" points="693.4 251.8 726.7 251.8 710.1 224.1 693.4 249.5"/>
  <polyline class="cls-8" points="726.7 224.1 759.6 224.1 742.9 251.8 726.7 226.8"/>
  <g>
    <path class="cls-8" d="M223.2,116c-1.6,1.2-5.1,2.4-9.5,2.4-9.9,0-17.4-9.1-17.4-25.7s7.5-26.5,18.6-26.5,7.1,1.2,8.3,2.4l-1.2,5.5c-1.6-1.2-4.4-2-7.1-2-8.3,0-13.9,7.5-13.9,21s5.1,20.6,13.5,20.6,5.5-.8,7.5-2l.8,5.1v-.8h.4,0Z"/>
    <path class="cls-8" d="M258.5,91.9c0,17.4-7.5,26.9-16.6,26.9s-16.2-10.3-16.2-25.7,7.1-26.5,16.6-26.5,16.2,10.7,16.2,25.7h0v-.4ZM230.8,92.6c0,11.1,4,20.6,11.5,20.6s11.5-9.5,11.5-21-3.6-20.6-11.5-20.6-11.5,9.9-11.5,21Z"/>
    <path class="cls-8" d="M264.4,67.3c2.4-.4,5.1-.8,8.7-.8s7.9,1.6,9.9,4.4c2,2.4,3.2,5.9,3.2,10.7s-.8,8.3-2.8,10.7c-2.4,3.6-6.3,5.5-11.1,5.5s-2.8,0-3.6-.4v20.2h-4.8v-50.3h.5ZM269.2,91.9c1.2,0,2.4.4,4,.4,5.5,0,9.1-4,9.1-10.7s-3.6-9.9-8.3-9.9-3.6,0-4.4.4v19.8h-.4Z"/>
    <path class="cls-8" d="M299.3,72.5h-10.7v-5.5h26.5v5.5h-11.1v45.2h-4.8v-45.2h0Z"/>
    <path class="cls-8" d="M323.4,66.9v50.7h-4.8v-50.7s4.8,0,4.8,0Z"/>
    <path class="cls-8" d="M356.7,116c-1.6,1.2-5.1,2.4-9.5,2.4-9.9,0-17.4-9.1-17.4-25.7s7.5-26.5,18.6-26.5,7.1,1.2,8.3,2.4l-1.2,5.5c-1.6-1.2-4.4-2-7.1-2-8.3,0-13.9,7.5-13.9,21s5.1,20.6,13.5,20.6,5.5-.8,7.5-2l.8,5.1v-.8h.4Z"/>
    <path class="cls-8" d="M379.3,101.8l-3.6,15.8h-4.8l12.3-50.7h5.5l12.3,50.7h-4.8l-4-15.8h-13.1.2ZM391.2,96.5l-3.6-14.7c-.8-3.2-1.2-6.3-2-9.1h0c-.4,2.8-1.2,5.9-2,9.1l-3.6,14.7h11.2Z"/>
    <path class="cls-8" d="M410.6,66.9v50.7h-4.8v-50.7s4.8,0,4.8,0Z"/>
    <path class="cls-8" d="M418.5,67.6c2.8-.8,6.3-1.2,9.9-1.2,6.7,0,11.5,2.4,14.3,6.3,3.2,4,5.1,9.9,5.1,18.2s-2,15.1-5.1,19.8c-3.6,4.8-8.7,7.1-15.8,7.1s-5.9,0-8.3-.8v-49.9h0v.4h-.1ZM423.3,112.5h4.8c9.9,0,15.1-7.9,15.1-21.4s-4.8-19.4-14.3-19.4-4.4,0-5.5.8v40h-.1Z"/>
    <path class="cls-8" d="M465.3,66.9h19.4v5.5h-14.7v17h13.5v5.5h-13.5v23h-4.8v-50.7h0v-.4h.1Z"/>
    <path class="cls-8" d="M521.5,91.9c0,17.4-7.5,26.9-16.6,26.9s-15.8-10.3-15.8-25.7,7.1-26.5,16.6-26.5,16.2,10.7,16.2,25.7h-.4v-.4h0ZM493.8,92.6c0,11.1,4,20.6,11.5,20.6s11.5-9.5,11.5-21-3.6-20.6-11.5-20.6-11.5,9.9-11.5,21Z"/>
    <path class="cls-8" d="M532.2,66.9v30.1c0,11.5,3.6,16.2,8.3,16.2s8.7-5.1,8.7-16.2v-30.1h4.8v29.7c0,15.4-5.9,21.8-13.5,21.8s-12.7-5.9-12.7-21.8v-30.1h4.8-.4v.4h0Z"/>
    <path class="cls-8" d="M561.9,117.5v-50.7h5.1l11.5,25.7c2.8,5.9,4.8,11.5,6.3,16.6h0c-.4-6.7-.4-13.1-.4-21v-21.4h4.4v50.7h-4.8l-11.5-25.7c-2.4-5.5-4.8-11.5-6.7-17h0v42.8h-4.4.5Z"/>
    <path class="cls-8" d="M596.4,67.6c2.8-.8,6.3-1.2,9.9-1.2,6.7,0,11.5,2.4,14.3,6.3,3.2,4,5.1,9.9,5.1,18.2s-2,15.1-5.1,19.8c-3.6,4.8-8.7,7.1-15.8,7.1s-5.9,0-8.3-.8v-49.9h0v.4h-.1ZM601.1,112.5h4.8c9.9,0,15.1-7.9,15.1-21.4s-4.8-19.4-14.3-19.4-4.4,0-5.5.8v40h0Z"/>
    <path class="cls-8" d="M636.8,101.8l-3.6,15.8h-4.8l12.3-50.7h5.5l12.3,50.7h-4.8l-4-15.8h-13.1.2ZM648.7,96.5l-3.6-14.7c-.8-3.2-1.2-6.3-2-9.1h0c-.4,2.8-1.2,5.9-2,9.1l-3.6,14.7h11.2Z"/>
    <path class="cls-8" d="M666.1,72.5h-10.7v-5.5h26.5v5.5h-11.1v45.2h-4.8v-45.2h0Z"/>
    <path class="cls-8" d="M690.2,66.9v50.7h-4.8v-50.7s4.8,0,4.8,0Z"/>
    <path class="cls-8" d="M729.1,91.9c0,17.4-7.5,26.9-16.6,26.9s-15.8-10.3-15.8-25.7,7.1-26.5,16.6-26.5,16.2,10.7,16.2,25.7h-.4v-.4ZM701.3,92.6c0,11.1,4,20.6,11.5,20.6s11.5-9.5,11.5-21-3.6-20.6-11.5-20.6-11.5,9.9-11.5,21Z"/>
    <path class="cls-8" d="M735,117.5v-50.7h5.1l11.5,25.7c2.8,5.9,4.8,11.5,6.3,16.6h0c-.4-6.7-.4-13.1-.4-21v-21.4h4.4v50.7h-4.8l-11.5-25.7c-2.4-5.5-4.8-11.5-6.7-17h0v42.8h-4.4.5Z"/>
  </g>
  <g>
    <path class="cls-8" d="M198.3,152.1h18.6v5.5h-14.3v17h13.1v5.5h-13.1v23h-4.4v-50.7h0v-.4h0Z"/>
    <path class="cls-8" d="M253.3,177c0,17.4-7.1,26.9-16.2,26.9s-15.4-10.3-15.4-25.7,6.7-26.5,16.2-26.5,15.8,10.7,15.8,25.7h-.4v-.4h0ZM226,177.8c0,11.1,4,20.6,11.1,20.6s11.1-9.5,11.1-21-3.6-20.6-11.1-20.6-11.1,9.9-11.1,21Z"/>
    <path class="cls-8" d="M258.9,203.1v-50.7h5.1l11.1,25.7c2.4,5.9,4.8,11.5,6.3,16.6h0c-.4-6.7-.4-13.1-.4-21v-21.4h4.4v50.7h-4.4l-11.1-25.7c-2.4-5.5-4.8-11.5-6.3-17h0v42.8h-4.8,0Z"/>
    <path class="cls-8" d="M292.9,152.8c2.8-.8,5.9-1.2,9.5-1.2,6.3,0,11.1,2.4,14.3,6.3,3.2,4,5.1,9.9,5.1,18.2s-2,15.1-5.1,19.8-8.7,7.1-15.4,7.1-5.9,0-8.3-.8v-49.9h0v.4h-.1ZM297.3,198h4.4c9.5,0,14.7-7.9,14.7-21.4s-4.8-19.4-14.3-19.4-4,0-5.1.8v40h.4-.1Z"/>
    <path class="cls-8" d="M332.2,186.8l-3.6,15.8h-4.8l11.9-50.7h5.5l11.9,50.7h-4.8l-3.6-15.8h-12.7.2ZM343.6,181.8l-3.6-14.7c-.8-3.2-1.2-6.3-2-9.1h0c-.4,2.8-1.2,5.9-1.6,9.1l-3.6,14.7h10.8Z"/>
    <path class="cls-8" d="M361.1,157.6h-10.7v-5.5h25.7v5.5h-10.7v45.2h-4.4v-45.2h.1Z"/>
    <path class="cls-8" d="M384.4,152.1v50.7h-4.4v-50.7h4.4Z"/>
    <path class="cls-8" d="M422.1,177c0,17.4-7.1,26.9-16.2,26.9s-15.4-10.3-15.4-25.7,6.7-26.5,16.2-26.5,15.8,10.7,15.8,25.7h-.4v-.4ZM395.1,177.8c0,11.1,4,20.6,11.1,20.6s11.1-9.5,11.1-21-3.6-20.6-11.1-20.6-11.1,9.9-11.1,21Z"/>
    <path class="cls-8" d="M428,203.1v-50.7h5.1l11.1,25.7c2.4,5.9,4.8,11.5,6.3,16.6h0c-.4-6.7-.4-13.1-.4-21v-21.4h4.4v50.7h-4.4l-11.1-25.7c-2.4-5.5-4.8-11.5-6.3-17h0v42.8h-4.8,0Z"/>
    <path class="cls-8" d="M472.8,152.8c2.8-.8,5.9-1.2,9.5-1.2,6.3,0,11.1,2.4,14.3,6.3,3.2,4,5.1,9.9,5.1,18.2s-2,15.1-5.1,19.8-8.7,7.1-15.4,7.1-5.9,0-8.3-.8v-49.9h0v.4h-.1ZM477.1,198h4.4c9.5,0,14.7-7.9,14.7-21.4s-4.8-19.4-14.3-19.4-4,0-5.1.8v40h.4-.1Z"/>
    <path class="cls-8" d="M513.2,150.8c-1.2,6.3-3.6,14.7-4.8,17.8h-2.8c1.2-4,2.4-11.9,3.2-17l4.8-.8h-.4Z"/>
    <path class="cls-8" d="M519.1,186.8l-3.6,15.8h-4.8l11.9-50.7h5.5l11.9,50.7h-4.8l-3.6-15.8h-12.7.2ZM530.6,181.8l-3.6-14.7c-.8-3.2-1.2-6.3-2-9.1h0c-.4,2.8-1.2,5.9-1.6,9.1l-3.6,14.7h10.8Z"/>
    <path class="cls-8" d="M549.6,152.1v50.7h-4.4v-50.7h4.4Z"/>
    <path class="cls-8" d="M557.5,152.8c2.8-.8,5.9-1.2,9.5-1.2,6.3,0,11.1,2.4,14.3,6.3,3.2,4,5.1,9.9,5.1,18.2s-2,15.1-5.1,19.8-8.7,7.1-15.4,7.1-5.9,0-8.3-.8v-49.9h0v.4h0ZM561.9,198h4.4c9.5,0,14.7-7.9,14.7-21.4s-4.8-19.4-14.3-19.4-4,0-5.1.8v40h.4-.1Z"/>
    <path class="cls-8" d="M609.8,179h-13.5v18.2h15.1v5.5h-19.8v-50.7h19v5.5h-14.3v16.2h13.5v5.5h0v-.4.2Z"/>
    <path class="cls-8" d="M652.6,201.6c-1.6,1.2-5.1,2.4-9.1,2.4-9.9,0-17-9.1-17-25.7s7.5-26.5,18.2-26.5,7.1,1.2,8.3,2.4l-1.2,5.5c-1.6-1.2-4-2-7.1-2-8.3,0-13.5,7.5-13.5,21s4.8,20.6,13.5,20.6,5.5-.8,7.5-2l.8,5.1v-.8h-.4Z"/>
    <path class="cls-8" d="M687.1,177c0,17.4-7.1,26.9-16.2,26.9s-15.4-10.3-15.4-25.7,6.7-26.5,16.2-26.5,15.8,10.7,15.8,25.7h-.4v-.4h0ZM659.7,177.8c0,11.1,4,20.6,11.1,20.6s11.1-9.5,11.1-21-3.6-20.6-11.1-20.6-11.1,9.9-11.1,21Z"/>
    <path class="cls-8" d="M692.6,152.8c2-.4,5.1-.8,8.7-.8s7.5,1.6,9.9,4.4c2,2.4,3.2,5.9,3.2,10.7s-.8,8.3-2.8,10.7c-2.4,3.6-6.3,5.5-10.7,5.5s-2.8,0-3.6-.4v20.2h-4.4v-50.3h-.4,0ZM697.4,177.3c.8,0,2.4.4,3.6.4,5.5,0,8.7-4,8.7-10.7s-3.2-9.9-8.3-9.9-3.6,0-4.4.4v19.8h.4Z"/>
    <path class="cls-8" d="M726.7,157.6h-10.7v-5.5h25.7v5.5h-10.7v45.2h-4.4v-45.2h.1Z"/>
    <path class="cls-8" d="M763.9,179h-13.5v18.2h15.1v5.5h-19.8v-50.7h19v5.5h-14.3v16.2h13.5v5.5h0v-.4.2Z"/>
  </g>
</svg>